# xmcd
#
# Track frame offsets:
#	150
#	15752
#	30770
#	46235
#	64162
#	79957
#	95355
#	107977
#	123002
#	138287
#	153390
#	168592
#	184407
#	200052
#
# Disc length: 2913 seconds
#
# Revision: 6
# Processed by: cddbd v1.5.1PL0 Copyright (c) Steve Scherf et al.
# Submitted via: audiograbber 1.83.01
#
DISCID=af0b5f0e
DTITLE=Various Artist - Hot Hits Country Volume 45
DYEAR=1900
DGENRE=Country
TTITLE0=Tracy Byrd - Walking To Jerusalem
TTITLE1=Rick Trevino - Bobbie Ann Mason
TTITLE2=Ty Herndon - I Want My Goodbye Back
TTITLE3=Brooks and Dunn - You're Gonna Miss Me When I'm Gone
TTITLE4=Reba McEntire - And Still
TTITLE5=Clay Walker - My Heart Will Never Know
TTITLE6=Mark Collie - Three Words Two Hearts One Night
TTITLE7=Joe Diffie - I'm In Love With A Capital U
TTITLE8=Pam Tillis - In Between Dances
TTITLE9=Lorrie Morgan - I Didn't Know My Own Strength
TTITLE10=Mark Chesnutt - Down In Tennessee
TTITLE11=James House - This Is Me Missing You
TTITLE12=George Strait - Lead On
TTITLE13=Rhett Akins - That Ain't My Truck
EXTD=
EXTT0=
EXTT1=
EXTT2=
EXTT3=
EXTT4=
EXTT5=
EXTT6=
EXTT7=
EXTT8=
EXTT9=
EXTT10=
EXTT11=
EXTT12=
EXTT13=
PLAYORDER=
